<svg xmlns="http://www.w3.org/2000/svg" xmlns:xlink="http://www.w3.org/1999/xlink" width="500" zoomAndPan="magnify" viewBox="0 0 375 225" height="300" preserveAspectRatio="xMidYMid meet" version="1.0"><defs><g/><clipPath id="1fa2afe9c2"><path d="M 8.019531 69.523438 L 107.019531 69.523438 L 107.019531 154.367188 L 8.019531 154.367188 Z M 8.019531 69.523438 " clip-rule="nonzero"/></clipPath><clipPath id="ca9e71d8c0"><path d="M 28 62.117188 L 35 62.117188 L 35 82 L 28 82 Z M 28 62.117188 " clip-rule="nonzero"/></clipPath><clipPath id="d48055d3e8"><path d="M 80 62.117188 L 87 62.117188 L 87 81 L 80 81 Z M 80 62.117188 " clip-rule="nonzero"/></clipPath><clipPath id="e551f70824"><path d="M 24.394531 127.433594 L 91 127.433594 L 91 144.683594 L 24.394531 144.683594 Z M 24.394531 127.433594 " clip-rule="nonzero"/></clipPath><clipPath id="95a62669a8"><path d="M 37.804688 119.074219 L 54 119.074219 L 54 135.785156 L 37.804688 135.785156 Z M 37.804688 119.074219 " clip-rule="nonzero"/></clipPath><clipPath id="3dc6cf05dc"><path d="M 47.738281 107.335938 L 77.492188 107.335938 L 77.492188 135.785156 L 47.738281 135.785156 Z M 47.738281 107.335938 " clip-rule="nonzero"/></clipPath><clipPath id="7a84c96c17"><path d="M 62 102.785156 L 70 102.785156 L 70 111 L 62 111 Z M 62 102.785156 " clip-rule="nonzero"/></clipPath></defs><path fill="#252422" d="M 37.066406 72.917969 L 77.585938 72.917969 C 77.960938 72.917969 78.265625 72.617188 78.265625 72.242188 L 78.265625 70.207031 C 78.265625 69.835938 77.960938 69.53125 77.585938 69.53125 L 37.066406 69.53125 C 36.695312 69.53125 36.390625 69.835938 36.390625 70.207031 L 36.390625 72.242188 C 36.390625 72.617188 36.695312 72.917969 37.066406 72.917969 " fill-opacity="1" fill-rule="nonzero"/><g clip-path="url(#1fa2afe9c2)"><path fill="#252422" d="M 96.683594 151.320312 L 18.570312 151.320312 C 14.613281 151.320312 11.410156 148.113281 11.410156 144.160156 L 11.410156 96.484375 L 103.84375 96.484375 L 103.84375 144.160156 C 103.84375 148.113281 100.636719 151.320312 96.683594 151.320312 Z M 96.683594 69.53125 L 89.105469 69.53125 C 88.730469 69.53125 88.429688 69.835938 88.429688 70.207031 L 88.429688 72.242188 C 88.429688 72.613281 88.730469 72.917969 89.105469 72.917969 L 96.683594 72.917969 C 100.632812 72.917969 103.84375 76.128906 103.84375 80.085938 L 103.84375 93.097656 L 11.410156 93.097656 L 11.410156 80.085938 C 11.410156 76.128906 14.621094 72.917969 18.570312 72.917969 L 25.550781 72.917969 C 25.921875 72.917969 26.226562 72.613281 26.226562 72.242188 L 26.226562 70.207031 C 26.226562 69.835938 25.921875 69.53125 25.550781 69.53125 L 18.570312 69.53125 C 12.757812 69.53125 8.019531 74.265625 8.019531 80.085938 L 8.019531 144.160156 C 8.019531 149.960938 12.769531 154.710938 18.570312 154.710938 L 96.683594 154.710938 C 102.484375 154.710938 107.230469 149.960938 107.230469 144.160156 L 107.230469 80.085938 C 107.230469 74.265625 102.496094 69.53125 96.683594 69.53125 " fill-opacity="1" fill-rule="nonzero"/></g><g clip-path="url(#ca9e71d8c0)"><path fill="#252422" d="M 31.308594 81.164062 C 32.988281 81.164062 34.359375 79.804688 34.359375 78.117188 L 34.359375 66.007812 C 34.359375 64.320312 32.988281 62.957031 31.308594 62.957031 C 29.621094 62.957031 28.257812 64.320312 28.257812 66.007812 L 28.257812 78.117188 C 28.257812 79.804688 29.621094 81.164062 31.308594 81.164062 " fill-opacity="1" fill-rule="nonzero"/></g><g clip-path="url(#d48055d3e8)"><path fill="#252422" d="M 83.347656 80.332031 C 85.027344 80.332031 86.394531 78.960938 86.394531 77.28125 L 86.394531 65.167969 C 86.394531 63.488281 85.027344 62.117188 83.347656 62.117188 C 81.660156 62.117188 80.296875 63.488281 80.296875 65.167969 L 80.296875 77.28125 C 80.296875 78.960938 81.660156 80.332031 83.347656 80.332031 " fill-opacity="1" fill-rule="nonzero"/></g><g clip-path="url(#e551f70824)"><path fill="#252422" d="M 25.460938 132.863281 C 25.480469 132.761719 25.5 132.667969 25.527344 132.574219 L 25.609375 132.296875 C 25.65625 132.113281 25.738281 131.941406 25.792969 131.769531 C 25.941406 131.433594 26.097656 131.121094 26.289062 130.832031 C 26.484375 130.546875 26.6875 130.273438 26.929688 130.03125 C 27.40625 129.546875 27.964844 129.144531 28.628906 128.847656 L 28.753906 128.789062 L 28.882812 128.742188 C 28.96875 128.710938 29.058594 128.671875 29.148438 128.640625 C 29.328125 128.59375 29.515625 128.519531 29.707031 128.476562 C 29.902344 128.425781 30.105469 128.390625 30.316406 128.351562 C 30.316406 128.351562 30.320312 128.351562 30.320312 128.351562 C 30.570312 128.3125 30.636719 127.980469 30.414062 127.859375 C 30.207031 127.746094 29.980469 127.65625 29.75 127.585938 C 29.519531 127.515625 29.28125 127.484375 29.035156 127.453125 C 28.914062 127.4375 28.792969 127.445312 28.667969 127.441406 L 28.480469 127.441406 C 28.417969 127.441406 28.359375 127.453125 28.296875 127.457031 C 27.300781 127.550781 26.332031 128.035156 25.625 128.769531 C 25.265625 129.132812 24.984375 129.570312 24.769531 130.027344 C 24.558594 130.488281 24.441406 130.988281 24.398438 131.484375 C 24.394531 131.605469 24.394531 131.730469 24.394531 131.855469 C 24.398438 131.917969 24.394531 131.976562 24.402344 132.039062 C 24.40625 132.101562 24.414062 132.160156 24.421875 132.222656 C 24.441406 132.34375 24.453125 132.464844 24.480469 132.582031 C 24.507812 132.699219 24.535156 132.816406 24.574219 132.929688 C 24.636719 133.113281 24.710938 133.292969 24.800781 133.464844 C 24.9375 133.726562 25.332031 133.660156 25.371094 133.367188 C 25.394531 133.191406 25.421875 133.027344 25.460938 132.863281 Z M 89.871094 133.367188 C 89.910156 133.660156 90.304688 133.726562 90.441406 133.464844 C 90.53125 133.292969 90.605469 133.113281 90.667969 132.929688 C 90.703125 132.816406 90.734375 132.699219 90.761719 132.582031 C 90.789062 132.464844 90.800781 132.34375 90.816406 132.222656 C 90.824219 132.160156 90.835938 132.101562 90.839844 132.039062 C 90.84375 131.976562 90.84375 131.917969 90.84375 131.855469 C 90.84375 131.730469 90.847656 131.605469 90.84375 131.484375 C 90.800781 130.988281 90.683594 130.488281 90.472656 130.027344 C 90.257812 129.570312 89.976562 129.132812 89.617188 128.769531 C 88.90625 128.035156 87.9375 127.550781 86.945312 127.457031 C 86.882812 127.453125 86.820312 127.441406 86.757812 127.441406 L 86.574219 127.441406 C 86.449219 127.445312 86.328125 127.4375 86.207031 127.453125 C 85.960938 127.484375 85.722656 127.515625 85.492188 127.585938 C 85.257812 127.65625 85.035156 127.746094 84.824219 127.859375 C 84.605469 127.980469 84.671875 128.3125 84.917969 128.351562 C 84.921875 128.351562 84.921875 128.351562 84.925781 128.351562 C 85.136719 128.390625 85.339844 128.425781 85.53125 128.476562 C 85.726562 128.519531 85.914062 128.59375 86.09375 128.640625 C 86.183594 128.671875 86.269531 128.710938 86.359375 128.742188 L 86.488281 128.789062 L 86.609375 128.847656 C 87.277344 129.144531 87.835938 129.546875 88.3125 130.03125 C 88.554688 130.273438 88.757812 130.546875 88.953125 130.832031 C 89.144531 131.121094 89.300781 131.433594 89.449219 131.769531 C 89.503906 131.941406 89.585938 132.113281 89.628906 132.296875 L 89.714844 132.574219 C 89.742188 132.667969 89.761719 132.761719 89.78125 132.863281 C 89.816406 133.027344 89.847656 133.191406 89.871094 133.367188 Z M 57.375 144.738281 C 52.105469 144.738281 46.871094 143.660156 41.816406 141.53125 C 36.925781 139.472656 32.191406 136.425781 27.746094 132.476562 C 27.410156 132.175781 27.378906 131.660156 27.679688 131.324219 C 27.976562 130.988281 28.492188 130.957031 28.828125 131.257812 C 37.558594 139.011719 47.429688 143.109375 57.375 143.109375 C 67.410156 143.109375 77.355469 138.941406 86.140625 131.0625 C 86.476562 130.761719 86.988281 130.789062 87.289062 131.125 C 87.589844 131.460938 87.5625 131.976562 87.226562 132.277344 C 82.757812 136.289062 77.988281 139.382812 73.0625 141.476562 C 67.96875 143.640625 62.691406 144.738281 57.375 144.738281 " fill-opacity="1" fill-rule="nonzero"/></g><g clip-path="url(#95a62669a8)"><path fill="#252422" d="M 45.601562 121.335938 C 49.253906 121.238281 52.300781 124.125 52.398438 127.777344 C 52.398438 127.839844 52.398438 127.910156 52.398438 127.972656 C 52.429688 131.625 49.488281 134.617188 45.832031 134.644531 C 42.175781 134.679688 39.183594 131.734375 39.15625 128.082031 C 39.15625 128.042969 39.15625 128.007812 39.15625 127.972656 C 39.148438 124.378906 42.003906 121.433594 45.601562 121.335938 Z M 45.589844 119.957031 C 41.242188 120.058594 37.78125 123.621094 37.804688 127.972656 C 37.773438 132.378906 41.3125 135.972656 45.71875 136.007812 C 50.125 136.042969 53.722656 132.496094 53.757812 128.09375 C 53.757812 128.050781 53.757812 128.011719 53.757812 127.972656 C 53.78125 123.566406 50.226562 119.976562 45.820312 119.953125 C 45.746094 119.953125 45.667969 119.953125 45.589844 119.957031 " fill-opacity="1" fill-rule="nonzero"/></g><g clip-path="url(#3dc6cf05dc)"><path fill="#252422" d="M 69.820312 121.359375 C 73.476562 121.535156 76.289062 124.636719 76.113281 128.292969 C 75.9375 131.945312 72.832031 134.761719 69.183594 134.585938 C 65.527344 134.410156 62.707031 131.304688 62.890625 127.652344 C 62.996094 125.429688 64.210938 123.40625 66.125 122.273438 L 68.886719 128.253906 C 69.058594 128.585938 69.46875 128.714844 69.800781 128.542969 C 70.109375 128.382812 70.246094 128.011719 70.117188 127.691406 L 67.355469 121.707031 C 68.144531 121.433594 68.984375 121.316406 69.820312 121.359375 Z M 59.09375 107.726562 C 58.644531 107.714844 58.199219 107.828125 57.8125 108.058594 L 49.074219 113.164062 C 47.921875 113.835938 47.53125 115.320312 48.210938 116.476562 C 48.433594 116.855469 48.757812 117.175781 49.148438 117.382812 L 55.898438 121.03125 L 55.898438 127.875 C 55.917969 128.675781 56.585938 129.308594 57.390625 129.289062 C 58.15625 129.265625 58.777344 128.644531 58.800781 127.875 L 58.800781 120.453125 C 58.800781 119.742188 58.414062 119.089844 57.785156 118.75 L 54.363281 116.898438 C 54.125 116.769531 54.042969 116.472656 54.171875 116.238281 C 54.21875 116.160156 54.28125 116.09375 54.363281 116.050781 L 59.378906 113.171875 C 59.613281 113.039062 59.90625 113.121094 60.039062 113.355469 C 60.046875 113.363281 60.050781 113.375 60.058594 113.386719 L 61.757812 116.933594 C 61.914062 117.269531 62.253906 117.484375 62.628906 117.484375 L 63.925781 117.484375 L 65.566406 121.039062 C 61.738281 123.21875 60.402344 128.089844 62.578125 131.914062 C 64.757812 135.746094 69.625 137.082031 73.457031 134.90625 C 77.285156 132.726562 78.625 127.855469 76.445312 124.027344 C 74.523438 120.652344 70.453125 119.148438 66.796875 120.472656 L 65.417969 117.484375 L 68.421875 117.484375 C 69.222656 117.484375 69.875 116.835938 69.875 116.03125 C 69.875 115.230469 69.222656 114.578125 68.421875 114.578125 L 64.152344 114.578125 C 63.96875 114.578125 63.796875 114.472656 63.71875 114.300781 L 61.214844 109.101562 C 60.824219 108.28125 60.003906 107.75 59.09375 107.726562 " fill-opacity="1" fill-rule="nonzero"/></g><g clip-path="url(#7a84c96c17)"><path fill="#252422" d="M 69.363281 106.476562 C 69.375 104.472656 67.761719 102.832031 65.753906 102.816406 C 63.742188 102.800781 62.105469 104.417969 62.089844 106.425781 C 62.089844 106.441406 62.089844 106.460938 62.089844 106.476562 C 62.078125 108.484375 63.691406 110.125 65.699219 110.140625 C 67.707031 110.152344 69.347656 108.539062 69.363281 106.527344 C 69.363281 106.515625 69.363281 106.496094 69.363281 106.476562 " fill-opacity="1" fill-rule="nonzero"/></g><g fill="#252422" fill-opacity="1"><g transform="translate(113.785622, 143.141935)"><g><path d="M 23.609375 0.640625 C 19.753906 0.640625 16.382812 0.03125 13.5 -1.1875 C 10.625 -2.40625 8.40625 -4.132812 6.84375 -6.375 C 5.289062 -8.625 4.515625 -11.226562 4.515625 -14.1875 L 4.515625 -16.40625 C 4.515625 -17.09375 4.859375 -17.4375 5.546875 -17.4375 L 8.953125 -17.4375 C 9.640625 -17.4375 9.984375 -17.09375 9.984375 -16.40625 L 9.984375 -14.5 C 9.984375 -11.488281 11.25 -9.03125 13.78125 -7.125 C 16.320312 -5.226562 19.734375 -4.28125 24.015625 -4.28125 C 28.078125 -4.28125 31.164062 -5.140625 33.28125 -6.859375 C 35.394531 -8.578125 36.453125 -10.859375 36.453125 -13.703125 C 36.453125 -15.554688 35.960938 -17.144531 34.984375 -18.46875 C 34.003906 -19.789062 32.507812 -21.03125 30.5 -22.1875 C 28.5 -23.351562 25.625 -24.703125 21.875 -26.234375 C 17.90625 -27.816406 14.820312 -29.203125 12.625 -30.390625 C 10.4375 -31.578125 8.671875 -33.109375 7.328125 -34.984375 C 5.984375 -36.859375 5.3125 -39.222656 5.3125 -42.078125 C 5.3125 -46.515625 6.851562 -49.960938 9.9375 -52.421875 C 13.03125 -54.878906 17.300781 -56.109375 22.75 -56.109375 C 28.5625 -56.109375 33.15625 -54.734375 36.53125 -51.984375 C 39.914062 -49.234375 41.609375 -45.585938 41.609375 -41.046875 L 41.609375 -39.546875 C 41.609375 -38.859375 41.265625 -38.515625 40.578125 -38.515625 L 37.09375 -38.515625 C 36.40625 -38.515625 36.0625 -38.859375 36.0625 -39.546875 L 36.0625 -40.734375 C 36.0625 -43.796875 34.867188 -46.304688 32.484375 -48.265625 C 30.109375 -50.222656 26.753906 -51.203125 22.421875 -51.203125 C 18.671875 -51.203125 15.804688 -50.429688 13.828125 -48.890625 C 11.847656 -47.359375 10.859375 -45.140625 10.859375 -42.234375 C 10.859375 -40.335938 11.347656 -38.765625 12.328125 -37.515625 C 13.304688 -36.273438 14.703125 -35.191406 16.515625 -34.265625 C 18.335938 -33.347656 21.128906 -32.148438 24.890625 -30.671875 C 28.742188 -29.085938 31.859375 -27.609375 34.234375 -26.234375 C 36.609375 -24.859375 38.507812 -23.179688 39.9375 -21.203125 C 41.363281 -19.222656 42.078125 -16.804688 42.078125 -13.953125 C 42.078125 -9.566406 40.453125 -6.035156 37.203125 -3.359375 C 33.953125 -0.691406 29.421875 0.640625 23.609375 0.640625 Z M 23.609375 0.640625 "/></g></g></g><g fill="#252422" fill-opacity="1"><g transform="translate(156.659653, 143.141935)"><g><path d="M 21.71875 0.640625 C 17.851562 0.640625 14.5625 -0.335938 11.84375 -2.296875 C 9.125 -4.253906 7.238281 -6.945312 6.1875 -10.375 C 5.445312 -12.8125 5.078125 -16.0625 5.078125 -20.125 C 5.078125 -24.144531 5.421875 -27.367188 6.109375 -29.796875 C 7.160156 -33.179688 9.046875 -35.847656 11.765625 -37.796875 C 14.484375 -39.753906 17.800781 -40.734375 21.71875 -40.734375 C 25.519531 -40.734375 28.78125 -39.753906 31.5 -37.796875 C 34.21875 -35.847656 36.082031 -33.207031 37.09375 -29.875 C 37.832031 -27.34375 38.203125 -24.09375 38.203125 -20.125 C 38.203125 -16.0625 37.832031 -12.8125 37.09375 -10.375 C 36.03125 -6.945312 34.140625 -4.253906 31.421875 -2.296875 C 28.703125 -0.335938 25.46875 0.640625 21.71875 0.640625 Z M 21.71875 -4.28125 C 24.25 -4.28125 26.410156 -4.976562 28.203125 -6.375 C 30.003906 -7.78125 31.222656 -9.671875 31.859375 -12.046875 C 32.285156 -13.734375 32.5 -16.398438 32.5 -20.046875 C 32.5 -23.847656 32.285156 -26.515625 31.859375 -28.046875 C 31.273438 -30.429688 30.070312 -32.320312 28.25 -33.71875 C 26.425781 -35.125 24.195312 -35.828125 21.5625 -35.828125 C 19.019531 -35.828125 16.847656 -35.125 15.046875 -33.71875 C 13.253906 -32.320312 12.039062 -30.429688 11.40625 -28.046875 C 10.988281 -26.515625 10.78125 -23.847656 10.78125 -20.046875 C 10.78125 -16.242188 10.988281 -13.578125 11.40625 -12.046875 C 11.988281 -9.671875 13.191406 -7.78125 15.015625 -6.375 C 16.835938 -4.976562 19.070312 -4.28125 21.71875 -4.28125 Z M 21.71875 -4.28125 "/></g></g></g><g fill="#252422" fill-opacity="1"><g transform="translate(196.363674, 143.141935)"><g><path d="M 21.484375 0.640625 C 17.671875 0.640625 14.40625 -0.347656 11.6875 -2.328125 C 8.96875 -4.316406 7.109375 -7 6.109375 -10.375 C 5.421875 -12.707031 5.078125 -15.984375 5.078125 -20.203125 C 5.078125 -24.015625 5.421875 -27.238281 6.109375 -29.875 C 7.054688 -33.15625 8.898438 -35.785156 11.640625 -37.765625 C 14.390625 -39.742188 17.671875 -40.734375 21.484375 -40.734375 C 25.335938 -40.734375 28.675781 -39.753906 31.5 -37.796875 C 34.320312 -35.847656 36.160156 -33.421875 37.015625 -30.515625 C 37.222656 -29.773438 37.378906 -29.0625 37.484375 -28.375 L 37.484375 -28.21875 C 37.484375 -27.632812 37.164062 -27.289062 36.53125 -27.1875 L 33.046875 -26.78125 L 32.8125 -26.78125 C 32.332031 -26.78125 32.015625 -27.070312 31.859375 -27.65625 C 31.859375 -27.863281 31.804688 -28.179688 31.703125 -28.609375 C 31.222656 -30.617188 30.054688 -32.320312 28.203125 -33.71875 C 26.359375 -35.125 24.117188 -35.828125 21.484375 -35.828125 C 18.835938 -35.828125 16.628906 -35.125 14.859375 -33.71875 C 13.085938 -32.320312 11.9375 -30.460938 11.40625 -28.140625 C 10.9375 -26.128906 10.703125 -23.457031 10.703125 -20.125 C 10.703125 -16.644531 10.9375 -13.953125 11.40625 -12.046875 C 11.9375 -9.671875 13.085938 -7.78125 14.859375 -6.375 C 16.628906 -4.976562 18.835938 -4.28125 21.484375 -4.28125 C 24.066406 -4.28125 26.296875 -4.953125 28.171875 -6.296875 C 30.046875 -7.648438 31.195312 -9.351562 31.625 -11.40625 C 31.675781 -11.519531 31.703125 -11.65625 31.703125 -11.8125 L 31.78125 -11.890625 C 31.832031 -12.578125 32.226562 -12.867188 32.96875 -12.765625 L 36.375 -12.203125 C 37.0625 -12.097656 37.378906 -11.703125 37.328125 -11.015625 L 37.015625 -9.671875 C 36.222656 -6.609375 34.398438 -4.125 31.546875 -2.21875 C 28.691406 -0.3125 25.335938 0.640625 21.484375 0.640625 Z M 21.484375 0.640625 "/></g></g></g><g fill="#252422" fill-opacity="1"><g transform="translate(234.00719, 143.141935)"><g><path d="M 6.890625 0 C 6.203125 0 5.859375 -0.34375 5.859375 -1.03125 L 5.859375 -39.0625 C 5.859375 -39.75 6.203125 -40.09375 6.890625 -40.09375 L 10.46875 -40.09375 C 11.144531 -40.09375 11.484375 -39.75 11.484375 -39.0625 L 11.484375 -1.03125 C 11.484375 -0.34375 11.144531 0 10.46875 0 Z M 8.5625 -47.234375 C 7.5 -47.234375 6.625 -47.5625 5.9375 -48.21875 C 5.257812 -48.882812 4.921875 -49.71875 4.921875 -50.71875 C 4.921875 -51.726562 5.257812 -52.5625 5.9375 -53.21875 C 6.625 -53.882812 7.5 -54.21875 8.5625 -54.21875 C 9.5625 -54.21875 10.378906 -53.882812 11.015625 -53.21875 C 11.648438 -52.5625 11.96875 -51.726562 11.96875 -50.71875 C 11.96875 -49.71875 11.648438 -48.882812 11.015625 -48.21875 C 10.378906 -47.5625 9.5625 -47.234375 8.5625 -47.234375 Z M 8.5625 -47.234375 "/></g></g></g><g fill="#252422" fill-opacity="1"><g transform="translate(247.954822, 143.141935)"><g><path d="M 20.203125 -40.734375 C 24.960938 -40.734375 28.648438 -39.515625 31.265625 -37.078125 C 33.878906 -34.648438 35.1875 -31.429688 35.1875 -27.421875 L 35.1875 -1.03125 C 35.1875 -0.34375 34.84375 0 34.15625 0 L 30.59375 0 C 29.90625 0 29.5625 -0.34375 29.5625 -1.03125 L 29.5625 -3.890625 C 29.5625 -4.046875 29.507812 -4.148438 29.40625 -4.203125 C 29.300781 -4.253906 29.191406 -4.203125 29.078125 -4.046875 C 27.648438 -2.515625 25.867188 -1.347656 23.734375 -0.546875 C 21.597656 0.242188 19.257812 0.640625 16.71875 0.640625 C 13.019531 0.640625 9.914062 -0.3125 7.40625 -2.21875 C 4.894531 -4.125 3.640625 -7.03125 3.640625 -10.9375 C 3.640625 -14.894531 5.078125 -18.023438 7.953125 -20.328125 C 10.835938 -22.628906 14.84375 -23.78125 19.96875 -23.78125 L 29.15625 -23.78125 C 29.425781 -23.78125 29.5625 -23.910156 29.5625 -24.171875 L 29.5625 -27.109375 C 29.5625 -29.796875 28.804688 -31.921875 27.296875 -33.484375 C 25.796875 -35.046875 23.457031 -35.828125 20.28125 -35.828125 C 17.800781 -35.828125 15.769531 -35.347656 14.1875 -34.390625 C 12.601562 -33.441406 11.597656 -32.125 11.171875 -30.4375 C 11.015625 -29.800781 10.617188 -29.535156 9.984375 -29.640625 L 6.109375 -30.109375 C 5.421875 -30.222656 5.101562 -30.515625 5.15625 -30.984375 C 5.675781 -33.890625 7.296875 -36.238281 10.015625 -38.03125 C 12.742188 -39.832031 16.140625 -40.734375 20.203125 -40.734375 Z M 17.984375 -4.203125 C 21.109375 -4.203125 23.816406 -4.976562 26.109375 -6.53125 C 28.410156 -8.09375 29.5625 -10.195312 29.5625 -12.84375 L 29.5625 -18.9375 C 29.5625 -19.207031 29.425781 -19.34375 29.15625 -19.34375 L 20.84375 -19.34375 C 17.351562 -19.34375 14.550781 -18.628906 12.4375 -17.203125 C 10.320312 -15.773438 9.265625 -13.789062 9.265625 -11.25 C 9.265625 -8.925781 10.082031 -7.171875 11.71875 -5.984375 C 13.363281 -4.796875 15.453125 -4.203125 17.984375 -4.203125 Z M 17.984375 -4.203125 "/></g></g></g><g fill="#252422" fill-opacity="1"><g transform="translate(284.88507, 143.141935)"><g><path d="M 43.265625 -51.59375 C 43.265625 -50.90625 42.921875 -50.5625 42.234375 -50.5625 L 13.46875 -50.5625 C 13.207031 -50.5625 13.078125 -50.429688 13.078125 -50.171875 L 13.078125 -30.75 C 13.078125 -30.488281 13.207031 -30.359375 13.46875 -30.359375 L 33.515625 -30.359375 C 34.203125 -30.359375 34.546875 -30.015625 34.546875 -29.328125 L 34.546875 -26.46875 C 34.546875 -25.78125 34.203125 -25.4375 33.515625 -25.4375 L 13.46875 -25.4375 C 13.207031 -25.4375 13.078125 -25.304688 13.078125 -25.046875 L 13.078125 -1.03125 C 13.078125 -0.34375 12.734375 0 12.046875 0 L 8.484375 0 C 7.796875 0 7.453125 -0.34375 7.453125 -1.03125 L 7.453125 -54.4375 C 7.453125 -55.125 7.796875 -55.46875 8.484375 -55.46875 L 42.234375 -55.46875 C 42.921875 -55.46875 43.265625 -55.125 43.265625 -54.4375 Z M 43.265625 -51.59375 "/></g></g></g><g fill="#252422" fill-opacity="1"><g transform="translate(326.332601, 143.141935)"><g><path d="M 6.890625 0 C 6.203125 0 5.859375 -0.34375 5.859375 -1.03125 L 5.859375 -39.0625 C 5.859375 -39.75 6.203125 -40.09375 6.890625 -40.09375 L 10.46875 -40.09375 C 11.144531 -40.09375 11.484375 -39.75 11.484375 -39.0625 L 11.484375 -1.03125 C 11.484375 -0.34375 11.144531 0 10.46875 0 Z M 8.5625 -47.234375 C 7.5 -47.234375 6.625 -47.5625 5.9375 -48.21875 C 5.257812 -48.882812 4.921875 -49.71875 4.921875 -50.71875 C 4.921875 -51.726562 5.257812 -52.5625 5.9375 -53.21875 C 6.625 -53.882812 7.5 -54.21875 8.5625 -54.21875 C 9.5625 -54.21875 10.378906 -53.882812 11.015625 -53.21875 C 11.648438 -52.5625 11.96875 -51.726562 11.96875 -50.71875 C 11.96875 -49.71875 11.648438 -48.882812 11.015625 -48.21875 C 10.378906 -47.5625 9.5625 -47.234375 8.5625 -47.234375 Z M 8.5625 -47.234375 "/></g></g></g><g fill="#252422" fill-opacity="1"><g transform="translate(340.280233, 143.141935)"><g><path d="M 24.328125 -36.453125 C 24.328125 -35.765625 23.984375 -35.421875 23.296875 -35.421875 L 14.65625 -35.421875 C 14.394531 -35.421875 14.265625 -35.289062 14.265625 -35.03125 L 14.265625 -11.890625 C 14.265625 -9.347656 14.832031 -7.5625 15.96875 -6.53125 C 17.101562 -5.507812 18.882812 -5 21.3125 -5 L 23.0625 -5 C 23.75 -5 24.09375 -4.65625 24.09375 -3.96875 L 24.09375 -1.1875 C 24.09375 -0.5 23.75 -0.128906 23.0625 -0.078125 L 20.375 -0.078125 C 16.5625 -0.078125 13.675781 -0.789062 11.71875 -2.21875 C 9.769531 -3.644531 8.796875 -6.285156 8.796875 -10.140625 L 8.796875 -35.03125 C 8.796875 -35.289062 8.664062 -35.421875 8.40625 -35.421875 L 3.890625 -35.421875 C 3.203125 -35.421875 2.859375 -35.765625 2.859375 -36.453125 L 2.859375 -39.0625 C 2.859375 -39.75 3.203125 -40.09375 3.890625 -40.09375 L 8.40625 -40.09375 C 8.664062 -40.09375 8.796875 -40.226562 8.796875 -40.5 L 8.796875 -49.375 C 8.796875 -50.0625 9.140625 -50.40625 9.828125 -50.40625 L 13.234375 -50.40625 C 13.921875 -50.40625 14.265625 -50.0625 14.265625 -49.375 L 14.265625 -40.5 C 14.265625 -40.226562 14.394531 -40.09375 14.65625 -40.09375 L 23.296875 -40.09375 C 23.984375 -40.09375 24.328125 -39.75 24.328125 -39.0625 Z M 24.328125 -36.453125 "/></g></g></g></svg>