<svg xmlns="http://www.w3.org/2000/svg" xmlns:xlink="http://www.w3.org/1999/xlink" width="500" zoomAndPan="magnify" viewBox="0 0 375 225" height="300" preserveAspectRatio="xMidYMid meet" version="1.0"><defs><g/><clipPath id="546ea77066"><path d="M 25.839844 67.273438 L 133.804688 67.273438 L 133.804688 159.714844 L 25.839844 159.714844 Z M 25.839844 67.273438 " clip-rule="nonzero"/></clipPath><clipPath id="e0699d4cd6"><path d="M 104 59.214844 L 112 59.214844 L 112 80 L 104 80 Z M 104 59.214844 " clip-rule="nonzero"/></clipPath><clipPath id="f88425282e"><path d="M 43.660156 130.289062 L 115.660156 130.289062 L 115.660156 149.039062 L 43.660156 149.039062 Z M 43.660156 130.289062 " clip-rule="nonzero"/></clipPath><clipPath id="547d75ef58"><path d="M 58.25 122 L 75.941406 122 L 75.941406 139.464844 L 58.25 139.464844 Z M 58.25 122 " clip-rule="nonzero"/></clipPath><clipPath id="bb7b23a116"><path d="M 69.0625 108.414062 L 101.449219 108.414062 L 101.449219 139.464844 L 69.0625 139.464844 Z M 69.0625 108.414062 " clip-rule="nonzero"/></clipPath><clipPath id="19e6a7948c"><path d="M 84 103.464844 L 93 103.464844 L 93 112 L 84 112 Z M 84 103.464844 " clip-rule="nonzero"/></clipPath></defs><path fill="#252422" d="M 57.449219 70.964844 L 101.542969 70.964844 C 101.953125 70.964844 102.28125 70.636719 102.28125 70.230469 L 102.28125 68.015625 C 102.28125 67.609375 101.953125 67.28125 101.542969 67.28125 L 57.449219 67.28125 C 57.042969 67.28125 56.714844 67.609375 56.714844 68.015625 L 56.714844 70.230469 C 56.714844 70.636719 57.042969 70.964844 57.449219 70.964844 " fill-opacity="1" fill-rule="nonzero"/><g clip-path="url(#546ea77066)"><path fill="#252422" d="M 122.324219 156.285156 L 37.320312 156.285156 C 33.015625 156.285156 29.527344 152.796875 29.527344 148.492188 L 29.527344 96.613281 L 130.117188 96.613281 L 130.117188 148.492188 C 130.117188 152.796875 126.628906 156.285156 122.324219 156.285156 Z M 122.324219 67.28125 L 114.078125 67.28125 C 113.671875 67.28125 113.34375 67.609375 113.34375 68.015625 L 113.34375 70.230469 C 113.34375 70.636719 113.671875 70.964844 114.078125 70.964844 L 122.324219 70.964844 C 126.621094 70.964844 130.117188 74.460938 130.117188 78.769531 L 130.117188 92.925781 L 29.527344 92.925781 L 29.527344 78.769531 C 29.527344 74.460938 33.023438 70.964844 37.320312 70.964844 L 44.914062 70.964844 C 45.324219 70.964844 45.652344 70.636719 45.652344 70.230469 L 45.652344 68.015625 C 45.652344 67.609375 45.324219 67.28125 44.914062 67.28125 L 37.320312 67.28125 C 30.996094 67.28125 25.839844 72.433594 25.839844 78.769531 L 25.839844 148.492188 C 25.839844 154.804688 31.007812 159.972656 37.320312 159.972656 L 122.324219 159.972656 C 128.636719 159.972656 133.804688 154.804688 133.804688 148.492188 L 133.804688 78.769531 C 133.804688 72.433594 128.648438 67.28125 122.324219 67.28125 " fill-opacity="1" fill-rule="nonzero"/></g><path fill="#252422" d="M 51.183594 79.941406 C 53.011719 79.941406 54.5 78.457031 54.5 76.621094 L 54.5 63.445312 C 54.5 61.609375 53.011719 60.128906 51.183594 60.128906 C 49.347656 60.128906 47.867188 61.609375 47.867188 63.445312 L 47.867188 76.621094 C 47.867188 78.457031 49.347656 79.941406 51.183594 79.941406 " fill-opacity="1" fill-rule="nonzero"/><g clip-path="url(#e0699d4cd6)"><path fill="#252422" d="M 107.8125 79.03125 C 109.640625 79.03125 111.128906 77.542969 111.128906 75.714844 L 111.128906 62.53125 C 111.128906 60.703125 109.640625 59.214844 107.8125 59.214844 C 105.976562 59.214844 104.496094 60.703125 104.496094 62.53125 L 104.496094 75.714844 C 104.496094 77.542969 105.976562 79.03125 107.8125 79.03125 " fill-opacity="1" fill-rule="nonzero"/></g><g clip-path="url(#f88425282e)"><path fill="#252422" d="M 44.816406 136.199219 C 44.839844 136.09375 44.863281 135.992188 44.890625 135.886719 L 44.980469 135.585938 C 45.03125 135.386719 45.121094 135.199219 45.179688 135.011719 C 45.34375 134.648438 45.511719 134.308594 45.71875 133.992188 C 45.933594 133.683594 46.15625 133.386719 46.417969 133.121094 C 46.9375 132.59375 47.546875 132.15625 48.269531 131.835938 L 48.402344 131.769531 L 48.542969 131.71875 C 48.636719 131.683594 48.734375 131.644531 48.832031 131.609375 C 49.027344 131.554688 49.230469 131.476562 49.441406 131.429688 C 49.652344 131.375 49.871094 131.332031 50.101562 131.292969 C 50.105469 131.292969 50.105469 131.292969 50.109375 131.292969 C 50.378906 131.25 50.453125 130.886719 50.210938 130.757812 C 49.984375 130.632812 49.738281 130.535156 49.488281 130.457031 C 49.234375 130.382812 48.976562 130.351562 48.710938 130.316406 C 48.578125 130.296875 48.445312 130.304688 48.308594 130.300781 L 48.105469 130.300781 C 48.039062 130.304688 47.972656 130.316406 47.90625 130.320312 C 46.824219 130.421875 45.769531 130.949219 44.996094 131.746094 C 44.605469 132.144531 44.300781 132.617188 44.0625 133.117188 C 43.835938 133.621094 43.707031 134.160156 43.660156 134.699219 C 43.65625 134.835938 43.660156 134.972656 43.660156 135.105469 C 43.660156 135.171875 43.660156 135.238281 43.664062 135.304688 C 43.671875 135.371094 43.679688 135.4375 43.691406 135.503906 C 43.710938 135.636719 43.722656 135.765625 43.75 135.894531 C 43.78125 136.023438 43.8125 136.152344 43.855469 136.277344 C 43.921875 136.476562 44 136.671875 44.097656 136.855469 C 44.25 137.140625 44.675781 137.070312 44.722656 136.753906 C 44.746094 136.5625 44.777344 136.378906 44.816406 136.199219 Z M 114.917969 136.753906 C 114.960938 137.070312 115.390625 137.140625 115.539062 136.855469 C 115.636719 136.671875 115.71875 136.476562 115.785156 136.277344 C 115.828125 136.152344 115.859375 136.023438 115.890625 135.894531 C 115.917969 135.765625 115.929688 135.636719 115.949219 135.503906 C 115.957031 135.4375 115.96875 135.371094 115.972656 135.304688 C 115.980469 135.238281 115.976562 135.171875 115.980469 135.105469 C 115.980469 134.972656 115.984375 134.835938 115.976562 134.699219 C 115.933594 134.160156 115.804688 133.621094 115.574219 133.117188 C 115.339844 132.617188 115.03125 132.144531 114.640625 131.746094 C 113.871094 130.949219 112.816406 130.421875 111.734375 130.320312 C 111.667969 130.316406 111.601562 130.304688 111.53125 130.300781 L 111.328125 130.300781 C 111.195312 130.304688 111.0625 130.296875 110.929688 130.316406 C 110.664062 130.351562 110.402344 130.382812 110.152344 130.457031 C 109.898438 130.535156 109.65625 130.632812 109.429688 130.757812 C 109.1875 130.886719 109.257812 131.25 109.53125 131.292969 C 109.53125 131.292969 109.535156 131.292969 109.539062 131.292969 C 109.765625 131.332031 109.984375 131.375 110.199219 131.429688 C 110.410156 131.476562 110.613281 131.554688 110.808594 131.609375 C 110.90625 131.644531 111 131.683594 111.09375 131.71875 L 111.234375 131.769531 L 111.371094 131.835938 C 112.09375 132.15625 112.703125 132.59375 113.222656 133.121094 C 113.484375 133.386719 113.707031 133.683594 113.921875 133.992188 C 114.125 134.308594 114.296875 134.648438 114.457031 135.011719 C 114.519531 135.199219 114.609375 135.386719 114.65625 135.585938 L 114.75 135.886719 C 114.777344 135.992188 114.800781 136.09375 114.820312 136.199219 C 114.859375 136.378906 114.890625 136.5625 114.917969 136.753906 Z M 79.554688 149.128906 C 73.816406 149.128906 68.121094 147.953125 62.621094 145.636719 C 57.296875 143.394531 52.144531 140.078125 47.304688 135.78125 C 46.941406 135.457031 46.90625 134.894531 47.230469 134.527344 C 47.558594 134.164062 48.117188 134.128906 48.484375 134.453125 C 57.984375 142.894531 68.726562 147.355469 79.554688 147.355469 C 90.472656 147.355469 101.296875 142.820312 110.859375 134.242188 C 111.222656 133.917969 111.785156 133.945312 112.109375 134.3125 C 112.4375 134.675781 112.40625 135.238281 112.042969 135.5625 C 107.175781 139.929688 101.988281 143.300781 96.625 145.578125 C 91.082031 147.933594 85.335938 149.128906 79.554688 149.128906 " fill-opacity="1" fill-rule="nonzero"/></g><g clip-path="url(#547d75ef58)"><path fill="#252422" d="M 66.734375 123.652344 C 70.714844 123.542969 74.027344 126.683594 74.132812 130.664062 C 74.132812 130.730469 74.132812 130.804688 74.132812 130.875 C 74.167969 134.851562 70.964844 138.105469 66.988281 138.136719 C 63.007812 138.171875 59.75 134.96875 59.722656 130.992188 C 59.722656 130.949219 59.722656 130.910156 59.722656 130.875 C 59.714844 126.960938 62.824219 123.753906 66.734375 123.652344 Z M 66.722656 122.152344 C 61.992188 122.261719 58.226562 126.140625 58.25 130.875 C 58.214844 135.667969 62.070312 139.582031 66.867188 139.621094 C 71.660156 139.65625 75.578125 135.800781 75.617188 131.003906 C 75.617188 130.957031 75.617188 130.914062 75.617188 130.875 C 75.640625 126.078125 71.773438 122.167969 66.976562 122.148438 C 66.894531 122.148438 66.808594 122.148438 66.722656 122.152344 " fill-opacity="1" fill-rule="nonzero"/></g><g clip-path="url(#bb7b23a116)"><path fill="#252422" d="M 93.097656 123.675781 C 97.074219 123.867188 100.136719 127.246094 99.945312 131.222656 C 99.753906 135.195312 96.375 138.265625 92.402344 138.074219 C 88.425781 137.878906 85.355469 134.5 85.550781 130.523438 C 85.667969 128.105469 86.992188 125.90625 89.074219 124.671875 L 92.078125 131.179688 C 92.265625 131.542969 92.710938 131.683594 93.074219 131.496094 C 93.410156 131.320312 93.5625 130.914062 93.417969 130.566406 L 90.414062 124.054688 C 91.273438 123.757812 92.1875 123.628906 93.097656 123.675781 Z M 81.421875 108.839844 C 80.933594 108.828125 80.449219 108.949219 80.027344 109.199219 L 70.515625 114.757812 C 69.261719 115.488281 68.839844 117.105469 69.578125 118.359375 C 69.820312 118.777344 70.171875 119.121094 70.597656 119.347656 L 77.941406 123.316406 L 77.941406 130.769531 C 77.964844 131.640625 78.691406 132.328125 79.566406 132.304688 C 80.402344 132.28125 81.078125 131.605469 81.101562 130.769531 L 81.101562 122.691406 C 81.101562 121.917969 80.679688 121.207031 79.996094 120.835938 L 76.273438 118.820312 C 76.015625 118.679688 75.921875 118.355469 76.066406 118.105469 C 76.117188 118.019531 76.183594 117.945312 76.273438 117.902344 L 81.730469 114.765625 C 81.984375 114.621094 82.304688 114.710938 82.449219 114.964844 C 82.457031 114.976562 82.464844 114.988281 82.472656 114.996094 L 84.320312 118.859375 C 84.492188 119.226562 84.863281 119.460938 85.269531 119.460938 L 86.679688 119.460938 L 88.464844 123.328125 C 84.300781 125.703125 82.84375 131 85.214844 135.167969 C 87.585938 139.335938 92.886719 140.789062 97.054688 138.421875 C 101.222656 136.050781 102.679688 130.746094 100.308594 126.582031 C 98.214844 122.90625 93.785156 121.269531 89.804688 122.710938 L 88.304688 119.460938 L 91.578125 119.460938 C 92.449219 119.460938 93.160156 118.753906 93.160156 117.878906 C 93.160156 117.007812 92.449219 116.296875 91.578125 116.296875 L 86.925781 116.296875 C 86.726562 116.296875 86.542969 116.179688 86.453125 115.996094 L 83.734375 110.335938 C 83.304688 109.441406 82.410156 108.867188 81.421875 108.839844 " fill-opacity="1" fill-rule="nonzero"/></g><g clip-path="url(#19e6a7948c)"><path fill="#252422" d="M 92.597656 107.480469 C 92.613281 105.296875 90.855469 103.511719 88.671875 103.496094 C 86.480469 103.480469 84.699219 105.238281 84.683594 107.421875 C 84.683594 107.441406 84.683594 107.460938 84.683594 107.480469 C 84.667969 109.664062 86.429688 111.449219 88.613281 111.464844 C 90.796875 111.480469 92.582031 109.722656 92.597656 107.535156 C 92.597656 107.519531 92.597656 107.5 92.597656 107.480469 " fill-opacity="1" fill-rule="nonzero"/></g><g fill="#252422" fill-opacity="1"><g transform="translate(141.448133, 155.418131)"><g><path d="M 19.375 0.515625 C 16.207031 0.515625 13.441406 0.0195312 11.078125 -0.96875 C 8.722656 -1.96875 6.90625 -3.390625 5.625 -5.234375 C 4.34375 -7.078125 3.703125 -9.210938 3.703125 -11.640625 L 3.703125 -13.453125 C 3.703125 -14.015625 3.984375 -14.296875 4.546875 -14.296875 L 7.34375 -14.296875 C 7.90625 -14.296875 8.1875 -14.015625 8.1875 -13.453125 L 8.1875 -11.890625 C 8.1875 -9.421875 9.226562 -7.40625 11.3125 -5.84375 C 13.394531 -4.289062 16.1875 -3.515625 19.6875 -3.515625 C 23.03125 -3.515625 25.566406 -4.21875 27.296875 -5.625 C 29.035156 -7.03125 29.90625 -8.90625 29.90625 -11.25 C 29.90625 -12.757812 29.503906 -14.054688 28.703125 -15.140625 C 27.898438 -16.222656 26.675781 -17.238281 25.03125 -18.1875 C 23.382812 -19.144531 21.019531 -20.253906 17.9375 -21.515625 C 14.6875 -22.816406 12.160156 -23.953125 10.359375 -24.921875 C 8.566406 -25.898438 7.117188 -27.15625 6.015625 -28.6875 C 4.910156 -30.226562 4.359375 -32.171875 4.359375 -34.515625 C 4.359375 -38.148438 5.625 -40.972656 8.15625 -42.984375 C 10.6875 -45.003906 14.1875 -46.015625 18.65625 -46.015625 C 23.425781 -46.015625 27.195312 -44.890625 29.96875 -42.640625 C 32.738281 -40.390625 34.125 -37.398438 34.125 -33.671875 L 34.125 -32.4375 C 34.125 -31.875 33.84375 -31.59375 33.28125 -31.59375 L 30.421875 -31.59375 C 29.859375 -31.59375 29.578125 -31.875 29.578125 -32.4375 L 29.578125 -33.40625 C 29.578125 -35.925781 28.597656 -37.984375 26.640625 -39.578125 C 24.691406 -41.179688 21.941406 -41.984375 18.390625 -41.984375 C 15.316406 -41.984375 12.96875 -41.351562 11.34375 -40.09375 C 9.71875 -38.84375 8.90625 -37.023438 8.90625 -34.640625 C 8.90625 -33.085938 9.304688 -31.800781 10.109375 -30.78125 C 10.910156 -29.757812 12.054688 -28.867188 13.546875 -28.109375 C 15.046875 -27.347656 17.332031 -26.363281 20.40625 -25.15625 C 23.570312 -23.851562 26.128906 -22.640625 28.078125 -21.515625 C 30.023438 -20.390625 31.582031 -19.015625 32.75 -17.390625 C 33.925781 -15.765625 34.515625 -13.78125 34.515625 -11.4375 C 34.515625 -7.84375 33.179688 -4.953125 30.515625 -2.765625 C 27.847656 -0.578125 24.132812 0.515625 19.375 0.515625 Z M 19.375 0.515625 "/></g></g></g><g fill="#252422" fill-opacity="1"><g transform="translate(176.608587, 155.418131)"><g><path d="M 17.8125 0.515625 C 14.644531 0.515625 11.945312 -0.285156 9.71875 -1.890625 C 7.488281 -3.492188 5.9375 -5.703125 5.0625 -8.515625 C 4.457031 -10.503906 4.15625 -13.171875 4.15625 -16.515625 C 4.15625 -19.804688 4.4375 -22.445312 5 -24.4375 C 5.875 -27.207031 7.425781 -29.394531 9.65625 -31 C 11.882812 -32.601562 14.601562 -33.40625 17.8125 -33.40625 C 20.925781 -33.40625 23.597656 -32.601562 25.828125 -31 C 28.066406 -29.394531 29.597656 -27.226562 30.421875 -24.5 C 31.023438 -22.425781 31.328125 -19.765625 31.328125 -16.515625 C 31.328125 -13.171875 31.023438 -10.503906 30.421875 -8.515625 C 29.554688 -5.703125 28.003906 -3.492188 25.765625 -1.890625 C 23.535156 -0.285156 20.882812 0.515625 17.8125 0.515625 Z M 17.8125 -3.515625 C 19.894531 -3.515625 21.671875 -4.085938 23.140625 -5.234375 C 24.609375 -6.378906 25.601562 -7.925781 26.125 -9.875 C 26.476562 -11.257812 26.65625 -13.445312 26.65625 -16.4375 C 26.65625 -19.5625 26.476562 -21.753906 26.125 -23.015625 C 25.65625 -24.960938 24.671875 -26.507812 23.171875 -27.65625 C 21.679688 -28.800781 19.851562 -29.375 17.6875 -29.375 C 15.601562 -29.375 13.820312 -28.800781 12.34375 -27.65625 C 10.875 -26.507812 9.878906 -24.960938 9.359375 -23.015625 C 9.015625 -21.753906 8.84375 -19.5625 8.84375 -16.4375 C 8.84375 -13.320312 9.015625 -11.132812 9.359375 -9.875 C 9.835938 -7.925781 10.820312 -6.378906 12.3125 -5.234375 C 13.8125 -4.085938 15.644531 -3.515625 17.8125 -3.515625 Z M 17.8125 -3.515625 "/></g></g></g><g fill="#252422" fill-opacity="1"><g transform="translate(209.169356, 155.418131)"><g><path d="M 17.609375 0.515625 C 14.492188 0.515625 11.816406 -0.296875 9.578125 -1.921875 C 7.347656 -3.546875 5.820312 -5.742188 5 -8.515625 C 4.4375 -10.421875 4.15625 -13.109375 4.15625 -16.578125 C 4.15625 -19.691406 4.4375 -22.332031 5 -24.5 C 5.78125 -27.1875 7.296875 -29.34375 9.546875 -30.96875 C 11.804688 -32.59375 14.492188 -33.40625 17.609375 -33.40625 C 20.773438 -33.40625 23.515625 -32.601562 25.828125 -31 C 28.148438 -29.394531 29.660156 -27.40625 30.359375 -25.03125 C 30.523438 -24.414062 30.65625 -23.828125 30.75 -23.265625 L 30.75 -23.140625 C 30.75 -22.660156 30.488281 -22.378906 29.96875 -22.296875 L 27.109375 -21.96875 L 26.90625 -21.96875 C 26.519531 -21.96875 26.257812 -22.207031 26.125 -22.6875 C 26.125 -22.851562 26.082031 -23.113281 26 -23.46875 C 25.613281 -25.113281 24.660156 -26.507812 23.140625 -27.65625 C 21.617188 -28.800781 19.773438 -29.375 17.609375 -29.375 C 15.441406 -29.375 13.632812 -28.800781 12.1875 -27.65625 C 10.738281 -26.507812 9.796875 -24.984375 9.359375 -23.078125 C 8.972656 -21.429688 8.78125 -19.242188 8.78125 -16.515625 C 8.78125 -13.648438 8.972656 -11.4375 9.359375 -9.875 C 9.796875 -7.925781 10.738281 -6.378906 12.1875 -5.234375 C 13.632812 -4.085938 15.441406 -3.515625 17.609375 -3.515625 C 19.734375 -3.515625 21.566406 -4.066406 23.109375 -5.171875 C 24.648438 -6.273438 25.59375 -7.671875 25.9375 -9.359375 C 25.976562 -9.441406 26 -9.550781 26 -9.6875 L 26.0625 -9.75 C 26.101562 -10.3125 26.429688 -10.550781 27.046875 -10.46875 L 29.828125 -10.015625 C 30.398438 -9.921875 30.660156 -9.59375 30.609375 -9.03125 L 30.359375 -7.9375 C 29.703125 -5.414062 28.203125 -3.375 25.859375 -1.8125 C 23.523438 -0.257812 20.773438 0.515625 17.609375 0.515625 Z M 17.609375 0.515625 "/></g></g></g><g fill="#252422" fill-opacity="1"><g transform="translate(240.04033, 155.418131)"><g><path d="M 5.65625 0 C 5.09375 0 4.8125 -0.28125 4.8125 -0.84375 L 4.8125 -32.046875 C 4.8125 -32.609375 5.09375 -32.890625 5.65625 -32.890625 L 8.578125 -32.890625 C 9.140625 -32.890625 9.421875 -32.609375 9.421875 -32.046875 L 9.421875 -0.84375 C 9.421875 -0.28125 9.140625 0 8.578125 0 Z M 7.015625 -38.75 C 6.148438 -38.75 5.4375 -39.019531 4.875 -39.5625 C 4.3125 -40.101562 4.03125 -40.785156 4.03125 -41.609375 C 4.03125 -42.429688 4.3125 -43.113281 4.875 -43.65625 C 5.4375 -44.195312 6.148438 -44.46875 7.015625 -44.46875 C 7.835938 -44.46875 8.507812 -44.195312 9.03125 -43.65625 C 9.550781 -43.113281 9.8125 -42.429688 9.8125 -41.609375 C 9.8125 -40.785156 9.550781 -40.101562 9.03125 -39.5625 C 8.507812 -39.019531 7.835938 -38.75 7.015625 -38.75 Z M 7.015625 -38.75 "/></g></g></g><g fill="#252422" fill-opacity="1"><g transform="translate(251.478608, 155.418131)"><g><path d="M 16.578125 -33.40625 C 20.472656 -33.40625 23.492188 -32.410156 25.640625 -30.421875 C 27.785156 -28.429688 28.859375 -25.785156 28.859375 -22.484375 L 28.859375 -0.84375 C 28.859375 -0.28125 28.578125 0 28.015625 0 L 25.09375 0 C 24.53125 0 24.25 -0.28125 24.25 -0.84375 L 24.25 -3.1875 C 24.25 -3.3125 24.203125 -3.394531 24.109375 -3.4375 C 24.023438 -3.488281 23.941406 -3.445312 23.859375 -3.3125 C 22.679688 -2.0625 21.210938 -1.109375 19.453125 -0.453125 C 17.703125 0.191406 15.789062 0.515625 13.71875 0.515625 C 10.6875 0.515625 8.140625 -0.257812 6.078125 -1.8125 C 4.015625 -3.375 2.984375 -5.757812 2.984375 -8.96875 C 2.984375 -12.21875 4.164062 -14.785156 6.53125 -16.671875 C 8.894531 -18.554688 12.175781 -19.5 16.375 -19.5 L 23.921875 -19.5 C 24.140625 -19.5 24.25 -19.609375 24.25 -19.828125 L 24.25 -22.234375 C 24.25 -24.441406 23.628906 -26.179688 22.390625 -27.453125 C 21.160156 -28.734375 19.242188 -29.375 16.640625 -29.375 C 14.597656 -29.375 12.925781 -28.984375 11.625 -28.203125 C 10.332031 -27.429688 9.515625 -26.347656 9.171875 -24.953125 C 9.035156 -24.441406 8.707031 -24.226562 8.1875 -24.3125 L 5 -24.703125 C 4.4375 -24.785156 4.175781 -25.023438 4.21875 -25.421875 C 4.65625 -27.796875 5.988281 -29.71875 8.21875 -31.1875 C 10.445312 -32.664062 13.234375 -33.40625 16.578125 -33.40625 Z M 14.75 -3.4375 C 17.3125 -3.4375 19.535156 -4.078125 21.421875 -5.359375 C 23.304688 -6.640625 24.25 -8.363281 24.25 -10.53125 L 24.25 -15.53125 C 24.25 -15.75 24.140625 -15.859375 23.921875 -15.859375 L 17.09375 -15.859375 C 14.238281 -15.859375 11.941406 -15.269531 10.203125 -14.09375 C 8.472656 -12.925781 7.609375 -11.304688 7.609375 -9.234375 C 7.609375 -7.328125 8.28125 -5.882812 9.625 -4.90625 C 10.96875 -3.925781 12.675781 -3.4375 14.75 -3.4375 Z M 14.75 -3.4375 "/></g></g></g><g fill="#252422" fill-opacity="1"><g transform="translate(281.76464, 155.418131)"><g><path d="M 35.484375 -42.3125 C 35.484375 -41.75 35.203125 -41.46875 34.640625 -41.46875 L 11.046875 -41.46875 C 10.828125 -41.46875 10.71875 -41.359375 10.71875 -41.140625 L 10.71875 -25.21875 C 10.71875 -25 10.828125 -24.890625 11.046875 -24.890625 L 27.5 -24.890625 C 28.0625 -24.890625 28.34375 -24.609375 28.34375 -24.046875 L 28.34375 -21.703125 C 28.34375 -21.140625 28.0625 -20.859375 27.5 -20.859375 L 11.046875 -20.859375 C 10.828125 -20.859375 10.71875 -20.753906 10.71875 -20.546875 L 10.71875 -0.84375 C 10.71875 -0.28125 10.4375 0 9.875 0 L 6.953125 0 C 6.390625 0 6.109375 -0.28125 6.109375 -0.84375 L 6.109375 -44.65625 C 6.109375 -45.21875 6.390625 -45.5 6.953125 -45.5 L 34.640625 -45.5 C 35.203125 -45.5 35.484375 -45.21875 35.484375 -44.65625 Z M 35.484375 -42.3125 "/></g></g></g><g fill="#252422" fill-opacity="1"><g transform="translate(315.75524, 155.418131)"><g><path d="M 5.65625 0 C 5.09375 0 4.8125 -0.28125 4.8125 -0.84375 L 4.8125 -32.046875 C 4.8125 -32.609375 5.09375 -32.890625 5.65625 -32.890625 L 8.578125 -32.890625 C 9.140625 -32.890625 9.421875 -32.609375 9.421875 -32.046875 L 9.421875 -0.84375 C 9.421875 -0.28125 9.140625 0 8.578125 0 Z M 7.015625 -38.75 C 6.148438 -38.75 5.4375 -39.019531 4.875 -39.5625 C 4.3125 -40.101562 4.03125 -40.785156 4.03125 -41.609375 C 4.03125 -42.429688 4.3125 -43.113281 4.875 -43.65625 C 5.4375 -44.195312 6.148438 -44.46875 7.015625 -44.46875 C 7.835938 -44.46875 8.507812 -44.195312 9.03125 -43.65625 C 9.550781 -43.113281 9.8125 -42.429688 9.8125 -41.609375 C 9.8125 -40.785156 9.550781 -40.101562 9.03125 -39.5625 C 8.507812 -39.019531 7.835938 -38.75 7.015625 -38.75 Z M 7.015625 -38.75 "/></g></g></g><g fill="#252422" fill-opacity="1"><g transform="translate(327.193517, 155.418131)"><g><path d="M 19.953125 -29.90625 C 19.953125 -29.34375 19.671875 -29.0625 19.109375 -29.0625 L 12.03125 -29.0625 C 11.8125 -29.0625 11.703125 -28.953125 11.703125 -28.734375 L 11.703125 -9.75 C 11.703125 -7.664062 12.164062 -6.203125 13.09375 -5.359375 C 14.03125 -4.515625 15.492188 -4.09375 17.484375 -4.09375 L 18.921875 -4.09375 C 19.484375 -4.09375 19.765625 -3.8125 19.765625 -3.25 L 19.765625 -0.96875 C 19.765625 -0.40625 19.484375 -0.101562 18.921875 -0.0625 L 16.703125 -0.0625 C 13.585938 -0.0625 11.226562 -0.644531 9.625 -1.8125 C 8.019531 -2.988281 7.21875 -5.15625 7.21875 -8.3125 L 7.21875 -28.734375 C 7.21875 -28.953125 7.109375 -29.0625 6.890625 -29.0625 L 3.1875 -29.0625 C 2.625 -29.0625 2.34375 -29.34375 2.34375 -29.90625 L 2.34375 -32.046875 C 2.34375 -32.609375 2.625 -32.890625 3.1875 -32.890625 L 6.890625 -32.890625 C 7.109375 -32.890625 7.21875 -33 7.21875 -33.21875 L 7.21875 -40.5 C 7.21875 -41.0625 7.5 -41.34375 8.0625 -41.34375 L 10.859375 -41.34375 C 11.421875 -41.34375 11.703125 -41.0625 11.703125 -40.5 L 11.703125 -33.21875 C 11.703125 -33 11.8125 -32.890625 12.03125 -32.890625 L 19.109375 -32.890625 C 19.671875 -32.890625 19.953125 -32.609375 19.953125 -32.046875 Z M 19.953125 -29.90625 "/></g></g></g></svg>