<svg width="15" height="15" viewBox="0 0 15 15" fill="none" xmlns="http://www.w3.org/2000/svg">
<path d="M8.32902 4.28125C8.6535 4.28125 8.9707 4.18503 9.2405 4.00476C9.5103 3.82448 9.72058 3.56825 9.84476 3.26847C9.96893 2.96868 10.0014 2.63881 9.93812 2.32056C9.87481 2.00231 9.71856 1.70997 9.48911 1.48053C9.25967 1.25108 8.96734 1.09483 8.64909 1.03152C8.33084 0.968221 8.00096 1.00071 7.70118 1.12489C7.40139 1.24906 7.14516 1.45934 6.96489 1.72914C6.78461 1.99894 6.68839 2.31614 6.68839 2.64063C6.68839 3.07575 6.86124 3.49305 7.16892 3.80072C7.47659 4.1084 7.89389 4.28125 8.32902 4.28125ZM8.32902 1.46875C8.56079 1.46875 8.78736 1.53748 8.98007 1.66625C9.17279 1.79501 9.32299 1.97804 9.41169 2.19217C9.50038 2.4063 9.52359 2.64193 9.47837 2.86925C9.43316 3.09657 9.32155 3.30538 9.15766 3.46927C8.99377 3.63316 8.78496 3.74477 8.55764 3.78998C8.33032 3.8352 8.09469 3.81199 7.88056 3.7233C7.66643 3.6346 7.4834 3.4844 7.35464 3.29168C7.22587 3.09897 7.15714 2.8724 7.15714 2.64063C7.15714 2.32983 7.28061 2.03175 7.50037 1.81199C7.72014 1.59222 8.01821 1.46875 8.32902 1.46875ZM11.8446 8.26563C11.8446 8.32779 11.8199 8.3874 11.776 8.43135C11.732 8.47531 11.6724 8.5 11.6103 8.5C9.63859 8.5 8.68527 7.53731 7.84386 6.6877C7.63761 6.47852 7.44191 6.28164 7.238 6.10176C7.19933 6.06836 7.15948 6.03789 7.12081 6.00859L6.13292 8.28027L8.4673 9.94727C8.49764 9.96943 8.52221 9.99857 8.53894 10.0322C8.55566 10.0659 8.56405 10.1031 8.56339 10.1406V13.4219C8.56339 13.484 8.5387 13.5437 8.49474 13.5876C8.45079 13.6316 8.39118 13.6563 8.32902 13.6563C8.26686 13.6563 8.20724 13.6316 8.16329 13.5876C8.11933 13.5437 8.09464 13.484 8.09464 13.4219V10.2613L5.94015 8.72266L3.85655 13.515C3.84428 13.5433 3.82657 13.5688 3.80442 13.5902C3.78228 13.6116 3.75613 13.6284 3.72749 13.6397C3.69884 13.651 3.66825 13.6565 3.63746 13.656C3.60668 13.6555 3.5763 13.6489 3.54806 13.6366C3.51982 13.6243 3.49427 13.6066 3.47288 13.5845C3.45149 13.5623 3.43467 13.5362 3.42338 13.5076C3.41209 13.4789 3.40655 13.4483 3.40708 13.4175C3.40761 13.3867 3.4142 13.3564 3.42648 13.3281L6.70363 5.7918C4.96339 5.17363 2.42628 7.52852 2.39581 7.55488C2.37323 7.57597 2.34671 7.5924 2.31778 7.60323C2.28885 7.61407 2.25806 7.6191 2.22719 7.61804C2.19631 7.61698 2.16594 7.60984 2.13782 7.59705C2.1097 7.58425 2.08438 7.56604 2.06329 7.54346C2.04221 7.52087 2.02578 7.49436 2.01495 7.46543C2.00411 7.43649 1.99908 7.40571 2.00014 7.37483C2.0012 7.34395 2.00833 7.31359 2.02113 7.28547C2.03393 7.25735 2.05213 7.23202 2.07472 7.21094C2.66059 6.68042 3.30636 6.22008 3.99894 5.83926C5.47257 5.0459 6.69835 5.01543 7.54503 5.7502C7.76241 5.93945 7.96398 6.14277 8.17726 6.35781C8.99171 7.17813 9.83429 8.03125 11.6103 8.03125C11.6724 8.03125 11.732 8.05594 11.776 8.0999C11.8199 8.14385 11.8446 8.20347 11.8446 8.26563Z" fill="#232121"/>
</svg>
