<svg width="26" height="26" viewBox="0 0 26 26" fill="none" xmlns="http://www.w3.org/2000/svg">
<path d="M20.1429 7.16667L13.0393 0.5L5.85714 7.16667M13.0393 0.535V20.5M7.64286 12.1667H4.07143C3.12423 12.1667 2.21582 12.5179 1.54605 13.143C0.876274 13.7681 0.5 14.6159 0.5 15.5V22.1667C0.5 23.0507 0.876274 23.8986 1.54605 24.5237C2.21582 25.1488 3.12423 25.5 4.07143 25.5H21.9286C22.8758 25.5 23.7842 25.1488 24.454 24.5237C25.1237 23.8986 25.5 23.0507 25.5 22.1667V15.5C25.5 14.6159 25.1237 13.7681 24.454 13.143C23.7842 12.5179 22.8758 12.1667 21.9286 12.1667H18.3571" stroke="white" stroke-linecap="round" stroke-linejoin="round"/>
</svg>
