<svg width="18" height="18" viewBox="0 0 18 18" fill="none" xmlns="http://www.w3.org/2000/svg">
<path d="M17.2222 18L10.343 11.1208C9.79371 11.5888 9.16203 11.9509 8.44796 12.2073C7.7339 12.4636 7.01617 12.5918 6.29478 12.5918C4.53561 12.5918 3.04669 11.9828 1.82801 10.7648C0.609338 9.54617 0 8.05761 0 6.29917C0 4.54074 0.608605 3.05145 1.82581 1.83131C3.04376 0.610436 4.53195 0 6.29038 0C8.04955 0 9.53921 0.609338 10.7593 1.82801C11.9795 3.04669 12.5896 4.53598 12.5896 6.29588C12.5896 7.05901 12.4544 7.79762 12.1842 8.51168C11.9132 9.22575 11.558 9.83655 11.1186 10.3441L17.9978 17.2222L17.2222 18ZM6.29478 11.4921C7.75221 11.4921 8.98297 10.9904 9.98705 9.98706C10.9904 8.9837 11.4921 7.75294 11.4921 6.29478C11.4921 4.83735 10.9904 3.60696 9.98705 2.6036C8.9837 1.60024 7.75331 1.09857 6.29588 1.09857C4.83845 1.09857 3.60769 1.60024 2.6036 2.6036C1.60024 3.60696 1.09857 4.83735 1.09857 6.29478C1.09857 7.75221 1.60024 8.9826 2.6036 9.98596C3.60696 10.9893 4.83735 11.4921 6.29478 11.4921Z" fill="#F2F2F2"/>
</svg>
