<svg width="25" height="25" viewBox="0 0 25 25" fill="none" xmlns="http://www.w3.org/2000/svg">
<path d="M21.875 3.125L15.1042 21.875C15.0585 21.9747 14.9851 22.0592 14.8928 22.1185C14.8004 22.1777 14.6931 22.2092 14.5833 22.2092C14.4736 22.2092 14.3662 22.1777 14.2739 22.1185C14.1816 22.0592 14.1082 21.9747 14.0625 21.875L10.4167 14.5833L3.12501 10.9375C3.02528 10.8918 2.94077 10.8184 2.88152 10.7261C2.82227 10.6338 2.79077 10.5264 2.79077 10.4167C2.79077 10.307 2.82227 10.1996 2.88152 10.1072C2.94077 10.0149 3.02528 9.94154 3.12501 9.89583L21.875 3.125Z" stroke="#232121" stroke-width="2" stroke-linecap="round" stroke-linejoin="round"/>
</svg>
