<svg width="35" height="35" viewBox="0 0 35 35" fill="none" xmlns="http://www.w3.org/2000/svg">
<path d="M10.2083 33.5417L14.6927 10.8646C14.8386 10.1597 15.1667 9.63083 15.6771 9.27792C16.1875 8.925 16.7222 8.74903 17.2813 8.75C17.8403 8.75 18.357 8.87153 18.8315 9.11458C19.3059 9.35764 19.6885 9.72222 19.9792 10.2083L21.4375 12.5417C21.875 13.2465 22.4404 13.8848 23.1336 14.4565C23.8267 15.0281 24.6225 15.4472 25.5208 15.7135V13.125H27.7083V33.5417H25.5208V18.7396C24.3542 18.4722 23.2726 18.0469 22.2761 17.4635C21.2795 16.8802 20.4167 16.1632 19.6875 15.3125L18.8125 19.6875L21.875 22.6042V33.5417H18.9583V24.7917L15.8958 21.875L13.2708 33.5417H10.2083ZM10.8281 19.1406L7.72918 18.5573C7.34029 18.4844 7.03647 18.2836 6.81772 17.955C6.59897 17.6264 6.52605 17.256 6.59897 16.8438L7.69272 11.1198C7.83855 10.342 8.25175 9.72806 8.9323 9.27792C9.61286 8.82778 10.342 8.67611 11.1198 8.82292L12.7969 9.15104L10.8281 19.1406ZM19.6875 8.02083C18.8854 8.02083 18.199 7.73549 17.6283 7.16479C17.0576 6.5941 16.7718 5.90722 16.7708 5.10417C16.7708 4.30208 17.0567 3.61569 17.6283 3.045C18.2 2.47431 18.8864 2.18847 19.6875 2.1875C20.4896 2.1875 21.1765 2.47333 21.7481 3.045C22.3198 3.61667 22.6051 4.30306 22.6042 5.10417C22.6042 5.90625 22.3188 6.59313 21.7481 7.16479C21.1774 7.73646 20.4906 8.02181 19.6875 8.02083Z" fill="#232121"/>
</svg>
