<svg width="25" height="25" viewBox="0 0 25 25" fill="none" xmlns="http://www.w3.org/2000/svg">
<g clip-path="url(#clip0_34_3)">
<path d="M1.92331 0.833333C1.92331 0.61232 1.822 0.400358 1.64168 0.244078C1.46136 0.0877975 1.21679 0 0.961778 0C0.706765 0 0.462196 0.0877975 0.281875 0.244078C0.101553 0.400358 0.000249084 0.61232 0.000249084 0.833333C-0.0169106 3.35646 0.852914 5.82429 2.49397 7.9084C4.13503 9.99252 6.46949 11.5941 9.1867 12.5C6.46949 13.4059 4.13503 15.0075 2.49397 17.0916C0.852914 19.1757 -0.0169106 21.6435 0.000249084 24.1667C0.000249084 24.3877 0.101553 24.5996 0.281875 24.7559C0.462196 24.9122 0.706765 25 0.961778 25C1.21679 25 1.46136 24.9122 1.64168 24.7559C1.822 24.5996 1.92331 24.3877 1.92331 24.1667C1.92331 18.1267 7.45402 13.3333 14.4232 13.3333H15.9482L13.7424 15.2433C13.653 15.3208 13.5821 15.4128 13.5337 15.514C13.4853 15.6153 13.4604 15.7238 13.4604 15.8333C13.4604 15.9429 13.4853 16.0514 13.5337 16.1526C13.5821 16.2539 13.653 16.3459 13.7424 16.4233C13.8318 16.5008 13.938 16.5623 14.0548 16.6042C14.1716 16.6461 14.2968 16.6677 14.4232 16.6677C14.5496 16.6677 14.6748 16.6461 14.7916 16.6042C14.9084 16.5623 15.0145 16.5008 15.1039 16.4233L18.9501 13.09C19.0396 13.0126 19.1106 12.9206 19.1591 12.8194C19.2076 12.7181 19.2325 12.6096 19.2325 12.5C19.2325 12.3904 19.2076 12.2819 19.1591 12.1806C19.1106 12.0794 19.0396 11.9874 18.9501 11.91L15.1039 8.57667C15.0145 8.49919 14.9084 8.43773 14.7916 8.39579C14.6748 8.35386 14.5496 8.33228 14.4232 8.33228C14.2968 8.33228 14.1716 8.35386 14.0548 8.39579C13.938 8.43773 13.8318 8.49919 13.7424 8.57667C13.653 8.65415 13.5821 8.74613 13.5337 8.84736C13.4853 8.94859 13.4604 9.05709 13.4604 9.16667C13.4604 9.27624 13.4853 9.38474 13.5337 9.48597C13.5821 9.5872 13.653 9.67919 13.7424 9.75667L15.9482 11.6667H14.4232C12.7786 11.6762 11.1482 11.4025 9.62672 10.8614C8.1052 10.3204 6.72285 9.52276 5.55994 8.51489C4.39702 7.50702 3.47671 6.30897 2.85242 4.99031C2.22813 3.67165 1.91232 2.25865 1.92331 0.833333ZM8.65401 3.33333C8.399 3.33333 8.15443 3.42113 7.97411 3.57741C7.79378 3.73369 7.69248 3.94565 7.69248 4.16667C7.69248 4.38768 7.79378 4.59964 7.97411 4.75592C8.15443 4.9122 8.399 5 8.65401 5H21.1539C22.1616 5 23.0769 5.79333 23.0769 6.66667V18.3333C23.0769 19.2067 22.1616 20 21.1539 20H8.65401C8.399 20 8.15443 20.0878 7.97411 20.2441C7.79378 20.4004 7.69248 20.6123 7.69248 20.8333C7.69248 21.0543 7.79378 21.2663 7.97411 21.4226C8.15443 21.5789 8.399 21.6667 8.65401 21.6667H21.1539C23.2231 21.6667 25 20.1267 25 18.3333V6.66667C25 4.87333 23.2231 3.33333 21.1539 3.33333H8.65401Z" fill="#28353A"/>
</g>
<defs>
<clipPath id="clip0_34_3">
<rect width="25" height="25" fill="white"/>
</clipPath>
</defs>
</svg>
