<svg width="15" height="15" viewBox="0 0 15 15" fill="none" xmlns="http://www.w3.org/2000/svg">
<g clip-path="url(#clip0_24_185)">
<path d="M7.54167 4.58334C5.91667 4.58334 4.625 5.87501 4.625 7.50001C4.625 9.12501 5.91667 10.4167 7.54167 10.4167C9.16667 10.4167 10.4583 9.12501 10.4583 7.50001C10.4583 5.87501 9.16667 4.58334 7.54167 4.58334ZM7.54167 9.58334C6.375 9.58334 5.45833 8.66668 5.45833 7.50001C5.45833 6.33334 6.375 5.41668 7.54167 5.41668C8.70833 5.41668 9.625 6.33334 9.625 7.50001C9.625 8.66668 8.70833 9.58334 7.54167 9.58334Z" fill="#F2F2F2"/>
<path d="M13.6666 6.12501L12.5 5.75001L12.25 5.12501L12.8333 4.04168C12.9583 3.79168 12.9166 3.45834 12.7083 3.25001L11.7083 2.25001C11.5 2.04168 11.1666 2.00001 10.9166 2.12501L9.83331 2.70834L9.20831 2.45834L8.83331 1.29168C8.74998 1.04168 8.49998 0.833344 8.20831 0.833344H6.79165C6.49998 0.833344 6.24998 1.04168 6.20831 1.33334L5.83331 2.50001C5.58331 2.54168 5.37498 2.62501 5.16665 2.75001L4.08331 2.16668C3.83331 2.04168 3.49998 2.08334 3.29165 2.29168L2.29165 3.29168C2.08331 3.50001 2.04165 3.83334 2.16665 4.08334L2.70831 5.12501C2.62498 5.33334 2.54165 5.58334 2.45831 5.79168L1.29165 6.16668C1.04165 6.25001 0.833313 6.50001 0.833313 6.79168V8.20834C0.833313 8.50001 1.04165 8.75001 1.33331 8.83334L2.49998 9.20834L2.74998 9.83334L2.16665 10.9167C2.04165 11.1667 2.08331 11.5 2.29165 11.7083L3.29165 12.7083C3.49998 12.9167 3.83331 12.9583 4.08331 12.8333L5.16665 12.25L5.79165 12.5L6.16665 13.7083C6.24998 13.9583 6.49998 14.1667 6.79165 14.1667H8.20831C8.49998 14.1667 8.74998 13.9583 8.83331 13.7083L9.20831 12.5L9.83331 12.25L10.9166 12.8333C11.1666 12.9583 11.5 12.9167 11.7083 12.7083L12.7083 11.7083C12.9166 11.5 12.9583 11.1667 12.8333 10.9167L12.25 9.83334L12.5 9.20834L13.7083 8.83334C13.9583 8.75001 14.1666 8.50001 14.1666 8.20834V6.79168C14.1666 6.50001 13.9583 6.20834 13.6666 6.12501ZM13.3333 8.08334L11.8333 8.54168L11.7916 8.75001L11.4166 9.62501L11.2916 9.83334L12.0416 11.2083L11.2083 12.0417L9.83331 11.2917L9.62498 11.4167C9.33331 11.5833 9.04165 11.7083 8.74998 11.7917L8.54165 11.8333L8.08331 13.3333H6.91665L6.45831 11.8333L6.24998 11.7917L5.37498 11.4167L5.16665 11.2917L3.79165 12.0417L2.95831 11.2083L3.70831 9.83334L3.58331 9.62501C3.41665 9.33334 3.29165 9.04168 3.20831 8.75001L3.16665 8.54168L1.66665 8.08334V6.91668L3.08331 6.50001L3.16665 6.29168C3.24998 5.95834 3.37498 5.66668 3.54165 5.37501L3.66665 5.16668L2.95831 3.79168L3.79165 2.95834L5.12498 3.70834L5.33331 3.58334C5.62498 3.41668 5.91665 3.29168 6.24998 3.20834L6.45831 3.12501L6.91665 1.66668H8.08331L8.54165 3.12501L8.74998 3.20834C9.04165 3.29168 9.33331 3.41668 9.62498 3.58334L9.83331 3.70834L11.2083 2.95834L12.0416 3.79168L11.2916 5.16668L11.4166 5.37501C11.5833 5.66668 11.7083 5.95834 11.7916 6.25001L11.8333 6.45834L13.3333 6.91668V8.08334Z" fill="#F2F2F2"/>
</g>
<defs>
<clipPath id="clip0_24_185">
<rect width="15" height="15" rx="7.5" fill="white"/>
</clipPath>
</defs>
</svg>
