<svg width="30" height="30" viewBox="0 0 30 30" fill="none" xmlns="http://www.w3.org/2000/svg">
<path d="M11.25 20C11.25 20.3315 11.1183 20.6495 10.8839 20.8839C10.6495 21.1183 10.3315 21.25 10 21.25C9.66848 21.25 9.35054 21.1183 9.11612 20.8839C8.8817 20.6495 8.75 20.3315 8.75 20C8.75 19.6685 8.8817 19.3505 9.11612 19.1161C9.35054 18.8817 9.66848 18.75 10 18.75C10.3315 18.75 10.6495 18.8817 10.8839 19.1161C11.1183 19.3505 11.25 19.6685 11.25 20ZM16.25 20C16.25 20.3315 16.1183 20.6495 15.8839 20.8839C15.6495 21.1183 15.3315 21.25 15 21.25C14.6685 21.25 14.3505 21.1183 14.1161 20.8839C13.8817 20.6495 13.75 20.3315 13.75 20C13.75 19.6685 13.8817 19.3505 14.1161 19.1161C14.3505 18.8817 14.6685 18.75 15 18.75C15.3315 18.75 15.6495 18.8817 15.8839 19.1161C16.1183 19.3505 16.25 19.6685 16.25 20ZM21.25 20C21.25 20.3315 21.1183 20.6495 20.8839 20.8839C20.6495 21.1183 20.3315 21.25 20 21.25C19.6685 21.25 19.3505 21.1183 19.1161 20.8839C18.8817 20.6495 18.75 20.3315 18.75 20C18.75 19.6685 18.8817 19.3505 19.1161 19.1161C19.3505 18.8817 19.6685 18.75 20 18.75C20.3315 18.75 20.6495 18.8817 20.8839 19.1161C21.1183 19.3505 21.25 19.6685 21.25 20Z" fill="#79C7C7"/>
<path d="M7.5 12.5V10C7.5 9.575 7.535 9.15625 7.60375 8.75M22.5 12.5V10C22.5001 8.47655 22.0362 6.9892 21.1702 5.73587C20.3041 4.48254 19.0769 3.52267 17.6519 2.98401C16.2268 2.44534 14.6715 2.35342 13.193 2.72048C11.7144 3.08754 10.3827 3.89616 9.375 5.03875M13.75 27.5H10C6.465 27.5 4.69625 27.5 3.59875 26.4013C2.5 25.3038 2.5 23.535 2.5 20C2.5 16.465 2.5 14.6963 3.59875 13.5988C4.69625 12.5 6.465 12.5 10 12.5H20C23.535 12.5 25.3038 12.5 26.4013 13.5988C27.5 14.6963 27.5 16.465 27.5 20C27.5 23.535 27.5 25.3038 26.4013 26.4013C25.3038 27.5 23.535 27.5 20 27.5H18.75" stroke="#79C7C7" stroke-width="1.5" stroke-linecap="round"/>
</svg>
