<svg width="15" height="15" viewBox="0 0 15 15" fill="none" xmlns="http://www.w3.org/2000/svg">
<path fill-rule="evenodd" clip-rule="evenodd" d="M10.155 2.52C9.45481 1.81961 8.509 1.42003 7.51874 1.40625H7.48124C6.49091 1.41983 5.54495 1.81928 4.84461 2.51962C4.14427 3.21996 3.74483 4.16591 3.73124 5.15625C3.71906 5.85938 3.91687 6.55031 4.29937 7.14094L7.25062 13.125H7.75031L10.7006 7.14094C11.0841 6.55031 11.2819 5.85938 11.2687 5.15625C11.255 4.16599 10.8554 3.22018 10.155 2.52ZM7.42968 2.34375L7.50656 2.35312L7.57593 2.34375C8.3124 2.37583 9.0086 2.68881 9.52142 3.21837C10.0342 3.74793 10.3247 4.45382 10.3331 5.19094C10.3403 5.71409 10.1875 6.22696 9.89531 6.66094L9.87656 6.69281L9.86062 6.72563L7.49999 11.5116L5.14031 6.73031L5.12437 6.69375L5.10562 6.66187C4.81338 6.2279 4.66063 5.71503 4.66781 5.19187C4.6758 4.4539 4.96661 3.74712 5.48029 3.21722C5.99398 2.68731 6.69138 2.37468 7.42874 2.34375H7.42968ZM8.00343 4.37719C7.90106 4.30874 7.78621 4.26112 7.66544 4.23705C7.54467 4.21299 7.42034 4.21294 7.29955 4.23693C7.17876 4.26091 7.06388 4.30845 6.96146 4.37683C6.85905 4.44521 6.7711 4.5331 6.70265 4.63547C6.6342 4.73784 6.58658 4.85269 6.56251 4.97346C6.53845 5.09423 6.53841 5.21856 6.56239 5.33935C6.58637 5.46014 6.63391 5.57502 6.7023 5.67744C6.77068 5.77985 6.85856 5.8678 6.96093 5.93625C7.16768 6.07449 7.42087 6.12495 7.66481 6.07651C7.90876 6.02807 8.12347 5.88471 8.26171 5.67797C8.39996 5.47122 8.45041 5.21803 8.40197 4.97409C8.35354 4.73014 8.21018 4.51543 8.00343 4.37719ZM6.44062 3.59719C6.64517 3.4534 6.87642 3.35197 7.12076 3.29888C7.3651 3.24579 7.61758 3.2421 7.86337 3.28804C8.10915 3.33397 8.34326 3.42861 8.55193 3.56636C8.76059 3.70412 8.9396 3.88223 9.07841 4.09019C9.21722 4.29816 9.31303 4.53179 9.36021 4.77734C9.40739 5.02288 9.40498 5.27539 9.35312 5.51999C9.30127 5.76459 9.20101 5.99635 9.05825 6.20163C8.9155 6.40691 8.73313 6.58156 8.52187 6.71531C8.10834 6.97713 7.60882 7.06686 7.13002 6.96535C6.65122 6.86385 6.23109 6.57914 5.95937 6.17205C5.68765 5.76496 5.58589 5.26776 5.67581 4.78665C5.76573 4.30554 6.04021 3.87866 6.44062 3.59719Z" fill="#232121"/>
</svg>
