<svg width="15" height="15" viewBox="0 0 15 15" fill="none" xmlns="http://www.w3.org/2000/svg">
<g clip-path="url(#clip0_18_948)">
<path d="M4.15389 2C4.15389 1.86739 4.09311 1.74021 3.98492 1.64645C3.87672 1.55268 3.72998 1.5 3.57698 1.5C3.42397 1.5 3.27723 1.55268 3.16903 1.64645C3.06084 1.74021 3.00006 1.86739 3.00006 2C2.98976 3.51388 3.51166 4.99457 4.49629 6.24504C5.48092 7.49551 6.8816 8.45646 8.51193 9C6.8816 9.54354 5.48092 10.5045 4.49629 11.755C3.51166 13.0054 2.98976 14.4861 3.00006 16C3.00006 16.1326 3.06084 16.2598 3.16903 16.3536C3.27723 16.4473 3.42397 16.5 3.57698 16.5C3.72998 16.5 3.87672 16.4473 3.98492 16.3536C4.09311 16.2598 4.15389 16.1326 4.15389 16C4.15389 12.376 7.47232 9.5 11.6538 9.5H12.5688L11.2454 10.646C11.1917 10.6925 11.1492 10.7477 11.1201 10.8084C11.0911 10.8692 11.0762 10.9343 11.0762 11C11.0762 11.0657 11.0911 11.1308 11.1201 11.1916C11.1492 11.2523 11.1917 11.3075 11.2454 11.354C11.299 11.4005 11.3627 11.4374 11.4328 11.4625C11.5028 11.4877 11.578 11.5006 11.6538 11.5006C11.7297 11.5006 11.8048 11.4877 11.8749 11.4625C11.945 11.4374 12.0086 11.4005 12.0623 11.354L14.3699 9.354C14.4237 9.30755 14.4663 9.25238 14.4954 9.19163C14.5245 9.13089 14.5394 9.06577 14.5394 9C14.5394 8.93423 14.5245 8.86911 14.4954 8.80837C14.4663 8.74762 14.4237 8.69245 14.3699 8.646L12.0623 6.646C12.0086 6.59951 11.945 6.56264 11.8749 6.53748C11.8048 6.51232 11.7297 6.49937 11.6538 6.49937C11.578 6.49937 11.5028 6.51232 11.4328 6.53748C11.3627 6.56264 11.299 6.59951 11.2454 6.646C11.1917 6.69249 11.1492 6.74768 11.1201 6.80842C11.0911 6.86916 11.0762 6.93426 11.0762 7C11.0762 7.06574 11.0911 7.13084 11.1201 7.19158C11.1492 7.25232 11.1917 7.30751 11.2454 7.354L12.5688 8.5H11.6538C10.6671 8.50571 9.68885 8.34149 8.77594 8.01686C7.86303 7.69222 7.03362 7.21365 6.33587 6.60893C5.63812 6.00421 5.08593 5.28538 4.71136 4.49419C4.33679 3.70299 4.1473 2.85519 4.15389 2ZM8.19231 3.5C8.03931 3.5 7.89256 3.55268 7.78437 3.64645C7.67618 3.74021 7.6154 3.86739 7.6154 4C7.6154 4.13261 7.67618 4.25979 7.78437 4.35355C7.89256 4.44732 8.03931 4.5 8.19231 4.5H15.6922C16.2968 4.5 16.8461 4.976 16.8461 5.5V12.5C16.8461 13.024 16.2968 13.5 15.6922 13.5H8.19231C8.03931 13.5 7.89256 13.5527 7.78437 13.6464C7.67618 13.7402 7.6154 13.8674 7.6154 14C7.6154 14.1326 7.67618 14.2598 7.78437 14.3536C7.89256 14.4473 8.03931 14.5 8.19231 14.5H15.6922C16.9338 14.5 17.9999 13.576 17.9999 12.5V5.5C17.9999 4.424 16.9338 3.5 15.6922 3.5H8.19231Z" fill="#232121"/>
</g>
<defs>
<clipPath id="clip0_18_948">
<rect width="15" height="15" fill="white"/>
</clipPath>
</defs>
</svg>
