<svg width="30" height="30" viewBox="0 0 30 30" fill="none" xmlns="http://www.w3.org/2000/svg">
<path d="M15 12.5C17.7614 12.5 20 10.2614 20 7.5C20 4.73858 17.7614 2.5 15 2.5C12.2386 2.5 10 4.73858 10 7.5C10 10.2614 12.2386 12.5 15 12.5Z" stroke="#79C7C7" stroke-width="1.5"/>
<path d="M24.9975 22.5C25 22.295 25 22.0862 25 21.875C25 18.7688 20.5225 16.25 15 16.25C9.4775 16.25 5 18.7688 5 21.875C5 24.9812 5 27.5 15 27.5C17.7887 27.5 19.8 27.3037 21.25 26.9537" stroke="#79C7C7" stroke-width="1.5" stroke-linecap="round"/>
</svg>
